<?xml version="1.0" encoding="utf-8"?>
<!-- Generator: Adobe Illustrator 24.2.0, SVG Export Plug-In . SVG Version: 6.00 Build 0)  -->
<svg version="1.1" id="Layer_1" xmlns="http://www.w3.org/2000/svg" xmlns:xlink="http://www.w3.org/1999/xlink" x="0px" y="0px"
	 viewBox="0 0 1280 985" enable-background="new 0 0 1280 985" xml:space="preserve">
<g>
	<g>
		<path fill="#513529" d="M630.3,0.5h10.39c89.97,0.66,180.04,15.31,264.89,45.51c64.47,22.96,125.9,54.99,180.54,96.31
			c55.69,42.06,104.57,94.01,139.19,154.85c17.61,30.91,31.43,64.01,40.55,98.41c19.85,74.12,16.93,154.09-8.17,226.6
			c-21.72,63.52-59.59,120.82-106.56,168.5c-46.28,47.04-101.04,85.34-159.88,115c-71.49,35.96-149.1,59.2-228.21,70.72
			c-37.91,5.7-76.24,7.86-114.52,9.1h-12.14c-24.51-1.11-49.05-1.97-73.48-4.36c-60.45-5.86-120.35-18.16-177.9-37.66
			c-68.85-23.2-134.48-56.61-192.48-100.51c-51.21-38.73-96.61-85.77-130.5-140.48c-19.02-30.7-34.33-63.75-44.89-98.31
			C6.55,569.84,0.93,534.04,0,498.14v-17.09c0.87-27.31,4.19-54.56,10.6-81.14C25,339.16,54.33,282.42,93.24,233.77
			c42.62-53.38,96.18-97.46,154.79-132.25C316.78,60.8,392.8,32.93,470.99,16.94C523.38,6.24,576.84,0.91,630.3,0.5z M594.4,18.08
			c-86.22,4.35-172.03,22.09-252,54.88c-70.06,28.68-135.76,69.01-190.78,121.22c-51.1,48.42-92.52,108-115.31,174.89
			c-19.43,56.44-25.04,117.56-16.02,176.58c6.72,44.8,21.92,88.2,43.68,127.89C97.89,735.33,146.83,788.11,203,830.32
			c55.39,41.63,117.82,73.52,183.26,96.07c110.28,38.03,229.06,49.58,344.88,37.37c87.58-9.4,173.92-33.17,252.76-72.73
			c64.46-32.45,124.04-75.54,172.28-129.43c46.66-52.1,81.95-115.18,97.41-183.67c11.27-49.27,12.24-100.85,2.97-150.53
			c-8.02-43.19-23.87-84.79-45.74-122.84c-38.37-66.67-94.04-122.33-157.37-165.48c-59.04-40.33-124.9-70.24-193.42-90.4
			C774.09,23.38,683.79,13.77,594.4,18.08z"/>
	</g>
	<g>
		<path fill="#513529" d="M597.76,297.33c21.25-5.97,42.75-11.02,64.4-15.35c2.1-0.7,4.05,0.59,5.95,1.35
			c33.59,15.23,65.59,33.7,96.95,53.06c24.94,15.47,49.34,31.8,73.39,48.63c14.51,8.21,30.93,13.11,47.55,14.44
			c16.49,1.35,33.42-2.26,47.6-10.91c14.61,17.11,26.63,36.97,32.15,58.93c-0.29,7.74-4.06,15.08-9,20.93
			c-9.36,10.81-22.81,17.05-36.37,20.76c-19.96,5.41-40.77,6.68-61.36,6.82c-43-0.12-85.76-5.91-128.01-13.5
			c-25.7-4.72-51.26-10.21-76.63-16.52c-19.32-4.65-38.39-10.32-57.72-14.94c-44.92-10.93-90.49-19.81-136.65-23.2
			c-25-1.75-50.23-1.85-75.08,1.65c-19.12,2.75-38.14,7.66-55.38,16.56c-8,4.02-15.19,9.39-22.36,14.71
			c3.34-22.88,13.45-44.39,27.29-62.77c23.94-31.72,57.46-54.83,92.76-72.3c13.21,10.33,29.92,16.13,46.72,15.75
			c7.23-0.33,15-0.49,21.12-4.88C527.54,319.34,562.52,307.41,597.76,297.33z M617.93,315.99c-36.6,7.19-72.78,18.05-106.01,35.22
			c35.36,12.23,69.51,27.59,103.86,42.34c9.86,3.31,20.04,5.61,30.26,7.48c39.57,6.78,80.81,4.52,119.26-7.12
			c-1.23-1.36-2.7-2.47-4.26-3.4c-18.67-11.72-38.15-22.08-57.51-32.6c-1.43-0.72-2.92-1.69-4.59-1.33
			c-21.56,2.34-43.11,4.92-64.68,7.2c9.98-10.28,20.3-20.24,30.34-30.47c-13.64-5.87-27.33-11.63-40.99-17.44
			C621.79,314.93,619.8,315.71,617.93,315.99z M357.32,415.08c19.66-2.76,39.45-4.62,59.27-5.76c41.92-2.35,84.25-1.65,125.69,5.65
			c-12.65-11.77-27.01-21.91-42.86-28.9c-6.3-2.49-13.02-5.42-19.94-3.9c-14.88,2.94-28.45,10.11-41.79,17.06
			c7.55-9.74,15.49-19.18,23.22-28.77c0.78-0.76,1.8-2.45,0.03-2.78c-12.8-5.56-25.45-11.49-37.79-18.03
			C396.3,365.52,372.39,387.53,357.32,415.08z"/>
	</g>
	<g>
		<path fill="#513529" d="M385.9,488.26c24.47-4.17,49.45-4.08,74.15-2.42c44.26,3.19,87.95,11.75,131.02,22.22
			c20.84,4.97,41.34,11.2,62.18,16.16c43.73,10.64,87.98,19.4,132.68,24.83c39.14,4.58,78.87,7.21,118.11,2.33
			c23.33-3.11,47.16-9.09,66.42-23.24c-4.86,28.18-20.28,53.56-39.64,74.2c-23.14,24.58-51.8,43.38-82.07,58
			c-57.25,27.38-120.55,40.64-183.73,43.54c-46.23,2.02-92.75-1.61-138-11.39c-34.65-7.56-68.62-18.74-100.38-34.63
			c-26.37-13.24-51.34-29.78-72.21-50.76c-16.75-16.84-30.72-36.82-38.74-59.29c-1.24-3.02-0.33-6.3,0.23-9.36
			c2.72-13.09,11.19-24.47,22.01-32.1C352.03,496.28,369.02,491.24,385.9,488.26z M371.07,515.51
			c-11.2,4.85-22.02,12.61-27.05,24.08c-2.15,4.37-0.24,9.29,1.27,13.55c4.74,11.41,12.66,21.12,20.73,30.34
			c12.27,13.65,25.82,26.11,39.95,37.8c-4.41-9.21-7.79-19.4-6.52-29.74c1.03-9.2,6.27-17.5,13.36-23.29
			c12.36-10.08,28.12-15.04,43.69-17.41c-4.69,7.07-9.65,13.96-14.29,21.06c29.59-8.16,59.11-16.58,88.7-24.77
			c-3.82,6.27-7.92,12.36-11.78,18.61c45.81-5.12,91.54-11.16,137.3-16.7c-12.63-1.11-24.99-4.08-37.39-6.59
			c-25.51-5.53-50.92-11.54-76.28-17.74c-37.23-9.48-75.13-17.92-113.71-18.48C409.44,506.1,389.3,507.78,371.07,515.51z"/>
	</g>
</g>
<g>
	<g>
		<path fill="#FFFFFF" d="M594.4,18.08c89.39-4.31,179.69,5.3,265.63,30.6c68.52,20.16,134.38,50.07,193.42,90.4
			c63.33,43.15,119,98.81,157.37,165.48c21.87,38.05,37.72,79.65,45.74,122.84c9.27,49.68,8.3,101.26-2.97,150.53
			c-15.46,68.49-50.75,131.57-97.41,183.67c-48.24,53.89-107.82,96.98-172.28,129.43c-78.84,39.56-165.18,63.33-252.76,72.73
			c-115.82,12.21-234.6,0.66-344.88-37.37c-65.44-22.55-127.87-54.44-183.26-96.07c-56.17-42.21-105.11-94.99-139.03-156.78
			c-21.76-39.69-36.96-83.09-43.68-127.89c-9.02-59.02-3.41-120.14,16.02-176.58c22.79-66.89,64.21-126.47,115.31-174.89
			c55.02-52.21,120.72-92.54,190.78-121.22C422.37,40.17,508.18,22.43,594.4,18.08z M590.61,31.37
			c-80.66,4.49-160.84,20.96-236.01,50.74c-69.86,27.72-135.54,67.03-190.63,118.38c-48.28,44.98-88.05,99.94-111.38,161.92
			c-13.66,36.14-21.63,74.46-23.15,113.07c-2.27,53.51,7.92,107.4,28.93,156.62c27.86,65.55,73.66,122.42,127.86,168.16
			c57.37,48.32,124.11,84.93,194.56,110.34c106.52,38.52,221.65,51.38,334.3,41.6c87.29-7.75,173.63-29.83,252.72-67.84
			c65.92-31.75,127-74.62,176.3-128.93c43.67-48.09,77.45-105.87,93.91-168.94c12.53-47.5,15.08-97.59,7.49-146.12
			c-6.3-40.66-19.78-80.1-38.98-116.46c-35.66-67.54-89.79-124.16-151.87-168.09c-56.42-39.98-119.59-70.01-185.49-90.71
			C779.42,36.88,684.46,26.31,590.61,31.37z"/>
	</g>
	<path fill="#FFFFFF" d="M592.13,81.78c9.67-0.19,19.34-0.42,29.02-0.59c0.59,26.57,1.14,53.14,1.74,79.7
		c15.45-0.31,30.91-0.62,46.36-0.97c0.12,5.03,0.21,10.06,0.31,15.1c-25.15,0.51-50.29,1.09-75.43,1.56
		C593.45,144.98,592.79,113.38,592.13,81.78z"/>
	<path fill="#FFFFFF" d="M493.56,94.66c9.45-2.04,18.85-4.3,28.28-6.43c7.07,30.8,14.17,61.59,21.22,92.39
		c-9.42,2.22-18.86,4.37-28.3,6.53c-3.16-13.68-6.26-27.36-9.43-41.03c-14.39,3.32-28.78,6.62-43.17,9.92
		c3.11,13.68,6.27,27.35,9.43,41.02c-9.43,2.24-18.88,4.39-28.33,6.53c-7.06-30.82-14.26-61.61-21.21-92.45
		c9.44-2.09,18.85-4.31,28.28-6.46c2.85,12.44,5.74,24.87,8.56,37.32c14.42-3.16,28.79-6.58,43.18-9.87
		C499.32,119.62,496.25,107.18,493.56,94.66z"/>
	<g>
		<path fill="#FFFFFF" d="M772.26,92.47c5.56,1.02,11.11,2.09,16.68,3.13c10.03,34.07,19.99,68.15,29.96,102.24
			c-10.19-1.95-20.37-3.9-30.56-5.79c-2.21-8.36-4.19-16.78-6.46-25.12c-13.28-2.45-26.54-5.02-39.81-7.53
			c-5.19,6.94-10.26,13.96-15.43,20.92c-6.61-1.28-13.23-2.52-19.84-3.77C728.59,148.5,750.44,120.5,772.26,92.47z M750.62,147.68
			c9.24,2.15,18.63,3.62,27.93,5.48c-2.77-10.62-5.52-21.24-8.31-31.86C763.2,129.68,757.21,138.93,750.62,147.68z"/>
	</g>
	<path fill="#FFFFFF" d="M854.4,209.64c13.46-28.59,26.93-57.17,40.43-85.75c5.27,2.64,10.85,4.75,15.93,7.74
		c10.47,26.36,20.51,52.91,30.81,79.35c8.49-17.68,16.72-35.49,25.15-53.21c5.91,2.79,11.88,5.47,17.72,8.41
		c-13.56,28.52-26.92,57.15-40.44,85.69c-5.31-2.5-10.6-5.02-15.93-7.48c-10.32-26.37-20.4-52.83-30.7-79.21
		c-1.86,2.56-2.94,5.55-4.31,8.38c-7.01,14.8-13.95,29.63-20.97,44.43C866.19,215.2,860.29,212.42,854.4,209.64z"/>
	<path fill="#FFFFFF" d="M301.43,166.83c14.75-13.72,33.67-22.47,53.15-27.07c0.68,4.88,1.36,9.77,1.96,14.67
		c-13.22,2.58-26.58,7.68-36.13,17.52c-6.51,6.65-10.14,16.21-8.75,25.51c1.35,9.31,6.05,18.06,12.7,24.68
		c6.36,6.31,15.77,9.09,24.57,7.59c8.46-1.04,15.99-5.27,23.06-9.76c-3.5-7.02-7.37-13.84-11.05-20.76
		c-5.81,3.07-11.53,6.31-17.39,9.27c-2.1-4.06-4.31-8.05-6.45-12.09c13.88-7.47,27.75-14.99,41.65-22.43
		c7.02,12.99,13.92,26.03,21.04,38.97c-14.31,15.37-32.17,28.05-52.55,33.82c-13.1,3.65-27.74,3.81-40.13-2.36
		c-16.06-7.82-25.8-26.39-23.74-44.04C284.78,187.35,292.07,175.67,301.43,166.83z"/>
	<g>
		<path fill="#FFFFFF" d="M984.15,278.27c22.56-22.13,45.14-44.25,67.72-66.35c9.68,9.86,19.36,19.72,29.01,29.6
			c9.85,10.15,19.76,21.04,24.28,34.72c2.96,8.16,3.12,17.33-0.03,25.46c-5.23,13.64-17.13,24.29-30.85,28.98
			c-10.38,3.59-21.95,2.73-32-1.48c-11.51-4.5-20.7-13.07-29.36-21.6C1003.27,297.88,993.74,288.05,984.15,278.27z M1062.29,242.37
			c-15.95,15.7-31.97,31.33-47.94,47.01c7.45,7.12,13.82,16.08,23.62,20.14c8.74,3.57,18.38-0.11,25.55-5.42
			c7.57-5.74,14.9-12.47,18.93-21.23c3.04-6.44,2.19-14.23-1.73-20.1C1075.71,255.04,1068.65,248.94,1062.29,242.37z"/>
	</g>
	<path fill="#FFFFFF" d="M198.31,241.5c7.11-6.58,14.22-13.15,21.36-19.69c21.41,23.24,42.88,46.43,64.28,69.69
		c-7.11,6.56-14.22,13.13-21.34,19.69C241.16,287.97,219.74,264.74,198.31,241.5z"/>
	<g>
		<path fill="#FFFFFF" d="M600.51,235.28c78.76-5.2,159.08,5.07,232.77,33.9c32.76,12.88,64.15,29.52,92.4,50.58
			c24.28,18.12,46.26,39.6,63.5,64.59c15.2,21.99,26.54,46.83,31.87,73.09c6.3,30.53,4.18,62.69-5.81,92.21
			c-10.93,32.68-30.82,61.82-54.97,86.17c-30.16,30.35-66.74,53.76-105.56,71.43c-58.59,26.54-122.51,40.36-186.62,43.57
			c-77.06,3.71-155.36-7.42-227.08-36.38c-34.46-13.98-67.37-32.21-96.48-55.45c-25.01-20-47.23-43.85-63.5-71.53
			c-17.46-29.47-27.46-63.62-26.68-97.99c0.46-29.32,8.67-58.28,22.53-84.05c15.78-29.45,38.37-54.85,64.07-76.02
			c32.66-26.83,70.31-47.17,109.74-62.15C498.64,249.08,549.41,238.79,600.51,235.28z M590.24,285.67
			c-36.31,10.54-72.21,23.31-105.55,41.29c-13.57,2.85-28.16,0.7-40.36-5.92c-5.57-2.93-10.31-7.12-15.2-11.02
			c-34.9,16.43-68.22,37.61-94.21,66.43c-20.09,22.19-35.36,49.44-40.34,79.18c-1.9,12.05-3.56,24.13-5.33,36.2
			c9.79-7.56,19.42-15.33,29.23-22.85c24.69-19.57,56.75-26.18,87.48-28.33c27.34-1.79,54.79-0.03,81.95,3.25
			c42.97,5.31,85.34,14.57,127.19,25.54c45.08,12.43,90.77,22.68,136.94,30.15c38.02,5.95,76.45,10.34,114.99,9.62
			c20.88-0.55,41.97-2.45,61.98-8.74c13.54-4.24,26.55-11.16,36.27-21.66c8.12-8.72,13.62-20.26,13.98-32.26
			c-3.67-15.73-10.46-30.64-19.01-44.3c-6.9-11.15-15.39-21.18-24.06-30.98c-7.66,4.69-15.17,9.94-23.93,12.38
			c-20.12,5.95-41.87,1.69-60.64-6.73c-5.45-2.18-9.99-5.95-14.81-9.21c-27.95-19.36-56.44-37.96-85.67-55.34
			c-26.59-15.68-53.65-30.75-81.99-43.07c-1.63-0.59-3.27-1.7-5.07-1.22C639.24,272.89,614.57,278.69,590.24,285.67z M402.99,472.68
			c-19.54,1.79-39.17,5.52-57.08,13.77c-12.81,5.89-24.69,14.47-32.81,26.14c-7.07,10.18-11.52,22.46-11.41,34.92
			c9.07,29.47,28.09,55.01,50.51,75.79c23.86,22.04,51.9,39.2,81.39,52.62c33.6,15.21,69.22,25.71,105.44,32.5
			c44.81,8.36,90.64,11,136.13,8.26c63.83-3.98,127.66-18.27,185.1-46.91c30.37-15.29,58.98-34.83,82.04-60
			c19.64-21.44,34.94-47.53,40.75-76.23c2.32-12.26,4.43-24.56,6.64-36.84c-5.03,3.81-10.04,7.64-15.05,11.47
			c-7.9,5.85-15.37,12.42-24.27,16.74c-17.24,8.56-36.44,12.16-55.43,14.14c-34.97,3.36-70.21,1.06-105.03-2.9
			c-45.06-5.36-89.65-14.15-133.72-24.88c-19.71-4.66-39.08-10.57-58.75-15.33c-23.97-5.94-48.11-11.19-72.44-15.38
			C484.77,473.79,443.78,469.25,402.99,472.68z"/>
	</g>
	<path fill="#FFFFFF" d="M142.05,304.16c28.67,13.23,57.27,26.61,85.96,39.81c-3.94,8.86-8.13,17.61-12.17,26.42
		c-12.72-5.9-25.44-11.82-38.17-17.71c-6.18,13.45-12.62,26.79-18.58,40.33c12.77,5.7,25.4,11.73,38.11,17.57
		c-4.05,8.79-8.13,17.58-12.22,26.36c-28.67-13.27-57.3-26.61-85.98-39.83c3.98-8.83,8.12-17.59,12.18-26.38
		c11.61,5.33,23.19,10.74,34.78,16.11c6.24-13.39,12.46-26.8,18.66-40.21c-11.61-5.36-23.2-10.75-34.8-16.11
		C133.87,321.72,137.95,312.94,142.05,304.16z"/>
	<path fill="#FFFFFF" d="M1131.04,352.57c6.06-4.64,14.57-5.61,21.61-2.74c8.62,3.41,14.94,10.79,19.44,18.65
		c7.19,12.79,10.42,27.52,10.81,42.11c-5.12-0.1-10.23-0.2-15.34-0.33c-0.6-9.9-1.63-20.16-6.2-29.12c-2.09-3.8-5.64-8.26-10.5-7.47
		c-3.92,0.79-5.39,5.08-6.22,8.49c-3.1,13.56-3.11,27.8-7.99,40.94c-2.42,6.55-6.81,12.76-13.35,15.65
		c-7.12,3.33-15.69,2.66-22.51-1.08c-8.97-4.82-15.19-13.47-19.37-22.54c-5.98-13.23-8.71-27.9-7.79-42.39
		c5.11,0.32,10.21,0.74,15.33,1.13c-0.33,11.44,0.61,23.36,5.91,33.71c2.23,4.07,5.96,8.62,11.11,8.15c4.13-0.5,6.46-4.51,7.42-8.18
		c3.64-12.78,3.27-26.37,7.44-39.04C1122.81,362.47,1125.89,356.49,1131.04,352.57z"/>
	<path fill="#FFFFFF" d="M933.01,744.51c23.57-16.27,47.14-32.55,70.71-48.81c2.74,4.08,5.75,7.99,8.27,12.22
		c-14.71,9.91-29.24,20.11-43.85,30.18c4.57,6.5,8.91,13.18,13.62,19.59c13.5-9.45,27.16-18.69,40.64-28.17
		c2.79,3.81,5.45,7.71,8.05,11.65c-13.61,9.36-27.23,18.7-40.75,28.19c5.13,7.41,10.24,14.84,15.37,22.25
		c14.95-10.19,29.78-20.56,44.7-30.8c2.85,4.15,5.73,8.27,8.56,12.44c-23.82,16.42-47.6,32.9-71.45,49.28
		C968.93,796.52,950.95,770.53,933.01,744.51z"/>
	<path fill="#FFFFFF" d="M245.65,725.13c6.92-9.3,17.79-15.45,29.3-16.71c15.17-1.8,30.28,3.32,43.26,10.87
		c13.99,8.28,26.31,19.26,36.57,31.84c-4.38,2.5-8.72,5.11-13.27,7.3c-7.51-9.93-16.77-19.07-28.34-24.09
		c-7.91-3.49-17.27-4.39-25.35-0.95c-9.4,4.02-16.24,12.56-20.14,21.81c-3.75,8.8-2.74,19.27,2.44,27.29
		c7.96,12.74,22.1,19.93,36.14,23.95c-0.9,4.96-1.7,9.93-2.72,14.87c-16.41-5.38-31.61-14.36-44.37-25.98
		c-10.56-9.75-19.33-22.29-21.75-36.7C235.34,746.95,238.35,734.49,245.65,725.13z"/>
	<path fill="#FFFFFF" d="M807.63,791.22c27.31-8.7,54.61-17.45,81.99-25.94c1.39,4.66,2.93,9.27,4.35,13.93
		c-16.96,5.36-33.91,10.73-50.86,16.07c2.41,7.6,4.68,15.26,7.3,22.8c15.66-5.15,31.43-9.92,47.1-15.04
		c1.53,4.47,3.02,8.97,4.23,13.55c-15.76,4.84-31.44,9.94-47.18,14.87c2.7,8.63,5.46,17.24,8.18,25.87
		c17.21-5.45,34.46-10.8,51.63-16.4c1.77,4.74,3.13,9.61,4.67,14.42c-27.59,8.74-55.16,17.52-82.76,26.2
		C826.73,851.44,817.21,821.32,807.63,791.22z"/>
	<g>
		<path fill="#FFFFFF" d="M407.49,776.13c17.83-3.09,36.17,1.13,52.45,8.46c12.75,5.93,25.06,14.84,31.09,27.93
			c5.8,12.34,3.86,27.02-2.15,38.91c-5.49,11.13-15.9,19.55-27.83,22.89c-16.73,4.82-34.67,1.74-50.73-4.13
			c-14.67-5.4-28.96-14.55-36.35-28.77c-6.88-12.83-6.29-28.84,0.31-41.65C380.5,786.91,393.6,778.43,407.49,776.13z M427.16,790.75
			c-4.69,0.79-9.04,3.18-12.35,6.57c-6.41,6.62-9.66,15.54-12.05,24.26c-2.08,8.2-3.06,17.43,0.95,25.23
			c3.76,7.4,11.67,11.52,19.43,13.46c7.36,1.84,15.63,0.74,21.77-3.89c7.65-5.63,11.91-14.61,14.64-23.47
			c2.34-7.87,3.95-16.48,1.48-24.52c-1.91-6.35-7.02-11.3-12.95-14.01C441.59,791.42,434.3,789.6,427.16,790.75z"/>
	</g>
	<g>
		<path fill="#FFFFFF" d="M1238.48,794.15c8.42-2.08,17.81-1.1,25.21,3.6c7.2,4.55,12.81,11.87,14.52,20.29
			c1.49,7.56,0.63,15.74-3.19,22.51c-4.15,7.22-10.98,13.06-19.05,15.36c-8.61,2.37-18.3,1.38-25.89-3.48
			c-6.95-4.53-12.46-11.58-14.27-19.76c-1.75-7.98-0.84-16.73,3.45-23.78C1223.58,801.87,1230.42,796.23,1238.48,794.15z
			 M1240.52,798.17c-9.79,2.28-18.03,10.42-20.33,20.22c-2.55,10.27,1.12,21.8,9.52,28.35c10.89,9.29,29.03,7.62,38.01-3.57
			c7.24-8.07,8.63-20.56,3.94-30.24C1266.27,801.59,1252.76,795.05,1240.52,798.17z"/>
	</g>
	<path fill="#FFFFFF" d="M676.97,809.32c28.49-2.79,56.99-5.56,85.49-8.31c0.48,4.84,0.96,9.69,1.42,14.54
		c-17.7,1.77-35.4,3.48-53.11,5.19c0.85,8.81,1.68,17.64,2.59,26.45c16.45-1.6,32.9-3.19,49.35-4.8c0.47,4.91,1.03,9.81,1.37,14.74
		c-16.45,1.7-32.94,3.06-49.36,4.95c1.37,12.8,2.54,25.63,3.79,38.45c-10.78,1.07-21.57,2.13-32.36,3.13
		C683.09,872.21,680.02,840.77,676.97,809.32z"/>
	<path fill="#FFFFFF" d="M544.3,803.32c28.55,2.39,57.08,4.88,85.62,7.37c-0.43,4.86-0.85,9.73-1.31,14.6
		c-17.72-1.55-35.44-3.1-53.17-4.57c-0.75,8.81-1.53,17.63-2.26,26.45c16.47,1.4,32.94,2.8,49.4,4.28c-0.39,4.9-0.84,9.8-1.25,14.71
		c-16.48-1.41-32.95-2.88-49.43-4.23c-1.11,12.85-2.24,25.71-3.33,38.58c-10.82-0.85-21.61-1.87-32.42-2.75
		C538.83,866.28,541.59,834.8,544.3,803.32z"/>
	<g>
		<path fill="#FFFFFF" d="M1233.96,807.37c5.69,0.08,11.39-0.23,17.08,0.22c3.66,0.24,7.82,1.65,9.38,5.3
			c1.36,3.39,1.4,7.88-1.34,10.62c-1.6,1.65-3.92,2.15-6.08,2.57c2.2,0.68,4.58,1.51,5.87,3.58c2.85,3.71,1.44,8.59,2.26,12.87
			c-1.94-0.03-3.87-0.07-5.79-0.13c-0.33-4.11,0.7-9.32-2.94-12.26c-3.68-2.17-8.2-1.23-12.25-1.44c-0.01,4.6-0.01,9.2,0,13.8
			c-2.08-0.01-4.14-0.01-6.19,0C1233.95,830.79,1233.95,819.08,1233.96,807.37z M1240.17,811.6c0,4.23-0.01,8.46,0,12.7
			c3.9-0.15,8,0.49,11.76-0.87c4.69-1.71,4.6-10.05-0.46-11.14C1247.78,811.29,1243.93,811.66,1240.17,811.6z"/>
	</g>
</g>
<g>
	<g>
		<path fill="#B3282D" d="M590.61,31.37c93.85-5.06,188.81,5.51,278.56,33.74c65.9,20.7,129.07,50.73,185.49,90.71
			c62.08,43.93,116.21,100.55,151.87,168.09c19.2,36.36,32.68,75.8,38.98,116.46c7.59,48.53,5.04,98.62-7.49,146.12
			c-16.46,63.07-50.24,120.85-93.91,168.94c-49.3,54.31-110.38,97.18-176.3,128.93c-79.09,38.01-165.43,60.09-252.72,67.84
			c-112.65,9.78-227.78-3.08-334.3-41.6c-70.45-25.41-137.19-62.02-194.56-110.34c-54.2-45.74-100-102.61-127.86-168.16
			c-21.01-49.22-31.2-103.11-28.93-156.62c1.52-38.61,9.49-76.93,23.15-113.07c23.33-61.98,63.1-116.94,111.38-161.92
			c55.09-51.35,120.77-90.66,190.63-118.38C429.77,52.33,509.95,35.86,590.61,31.37z M582.79,72.72
			c0.55,37.76,1.6,75.52,2.32,113.28c31.27-0.52,62.54-1.36,93.81-1.91c0.02-11.14-0.52-22.28-0.56-33.42
			c-15.48-0.05-30.95,0.59-46.43,0.78c-0.62-26.56-1.12-53.12-1.72-79.68C614.4,72.03,598.6,72.49,582.79,72.72z M482.59,87.69
			c2.46,12.58,5.75,24.99,8.39,37.54c-8.4,1.83-16.72,3.97-25.15,5.66c-2.83-12.39-5.76-24.76-8.51-37.17
			c-15.5,3.31-30.93,6.99-46.37,10.59c8.43,36.76,16.92,73.5,25.33,110.26c15.5-3.35,30.93-6.99,46.37-10.6
			c-3.17-13.63-6.25-27.29-9.43-40.91c8.41-1.93,16.77-4.21,25.29-5.61c3.08,13.6,6.11,27.22,9.42,40.76
			c15.4-3.55,30.81-7.03,46.18-10.66c-8.35-36.79-16.94-73.52-25.31-110.31C513.35,80.51,498.04,84.41,482.59,87.69z M768.27,82.46
			c-25.89,33.51-52.08,66.78-77.97,100.29c13.45,2.65,26.91,5.18,40.38,7.7c5.13-6.96,10.19-13.98,15.4-20.88
			c9.46,1.77,18.93,3.53,28.37,5.42c1.91,7.48,3.82,14.97,5.67,22.47c0.38,0.97,0.38,2.72,1.84,2.73
			c16.67,3.17,33.33,6.41,50.02,9.46c-11.94-40.72-23.71-81.49-35.88-122.13C786.8,85.97,777.61,83.78,768.27,82.46z M890.33,111.65
			c-16.01,34.15-32.12,68.26-48.22,102.37c11.42,5.49,22.93,10.82,34.39,16.26c6.77-13.93,13.02-28.12,19.99-41.95
			c8.06,20.85,16.01,41.77,24.3,62.53c8.93,4.86,18.43,8.73,27.54,13.28c16.35-33.99,32.1-68.27,48.37-102.3
			c-11.35-5.71-22.93-10.96-34.43-16.36c-6.6,14.03-13.17,28.07-19.85,42.06c-8.17-20.98-16.19-42.01-24.42-62.96
			C908.76,120.31,899.63,115.78,890.33,111.65z M329.67,138.16c-17.34,7.52-34.05,18.18-45.02,33.9
			c-7.6,10.84-11.79,24.27-10.54,37.55c1.49,17.97,12.53,35.06,28.84,43.02c15.19,7.62,33.25,7.25,49.2,2.29
			c23.25-7.06,42.89-22.53,58.94-40.38c-9.53-17.67-19.09-35.32-28.54-53.04c-19.39,10.23-38.62,20.77-57.95,31.13
			c4.38,8.32,8.9,16.57,13.36,24.85c0.49,0.9,0.7,1.91,0.94,2.9c-9.44-3.3-15.34-12.62-17.7-21.92c-2.14-8.36,1.83-17.09,8.3-22.4
			c10.36-9.08,24.28-11.74,37.35-14.44c-1.49-10.97-2.96-21.94-4.41-32.91C351.26,130.83,340.12,133.54,329.67,138.16z
			 M971.1,278.17c9.27,9.45,18.54,18.89,27.8,28.35c8.14,8.23,16.17,16.7,25.64,23.44c11.69,8.22,26.08,13.31,40.49,12.03
			c16-1.33,30.84-10.25,40.66-22.77c7.44-9.47,11.95-21.59,10.84-33.72c-0.99-10.32-5.15-20.13-10.78-28.75
			c-7.04-10.71-16.34-19.62-25.21-28.77c-9.52-9.68-18.97-19.43-28.52-29.08C1025.02,225.29,998.03,251.7,971.1,278.17z
			 M185.26,241.04c25.65,27.68,51.18,55.48,76.82,83.18c11.64-10.77,23.4-21.41,34.91-32.31c-25.68-27.65-51.17-55.48-76.83-83.16
			C208.51,219.5,196.78,230.16,185.26,241.04z M624.29,220.89c-70.75,1.88-141.61,16.3-206.15,45.74
			c-48.56,22.29-93.96,53.4-127.83,95.13c-19.03,23.53-34.07,50.56-42.22,79.8c-8.13,28.8-9.29,59.54-3.27,88.87
			c5.88,29.05,18.68,56.46,35.82,80.56c17.69,24.91,39.82,46.45,64.21,64.75c27.07,20.29,56.96,36.66,88.17,49.64
			c40.61,16.85,83.5,27.96,127.01,34.02c69.35,9.49,140.5,6.69,208.7-9.25c50.13-11.8,98.83-30.82,142.37-58.5
			c28.96-18.48,55.63-40.89,77.3-67.63c19.06-23.49,34.11-50.48,42.32-79.67c8.19-28.78,9.42-59.5,3.47-88.82
			c-5.21-26-15.93-50.74-30.39-72.9c-16.69-25.63-38.14-47.94-62.04-66.93c-26.91-21.4-56.96-38.68-88.43-52.42
			C781.46,232.06,702.41,218.94,624.29,220.89z M123.24,322.75c-1.79,4.14-4.1,8.07-5.41,12.41c11.46,5.16,22.79,10.65,34.27,15.78
			c-2.92,8.08-7.18,15.63-10.53,23.55c-11.81-5.05-23.22-11.01-35.07-15.93c-6.39,14.41-13.26,28.6-19.75,42.96
			c34.18,15.97,68.45,31.76,102.67,47.66c6.78-14.24,13.23-28.64,20.01-42.88c-12.52-6.37-25.49-11.84-38.14-17.95
			c3.59-7.79,7.23-15.56,10.82-23.35c12.86,5.67,25.42,12.04,38.37,17.52c6.45-14.4,13.3-28.61,19.81-42.98
			c-34.17-15.93-68.42-31.67-102.58-47.62C132.61,302.06,128.11,312.49,123.24,322.75z M1122.92,347.36
			c-6.63,6.29-10.23,15.05-12.41,23.76c-2.88,11.14-3.01,22.76-5.92,33.89c-2.56-2.2-3.25-5.68-4.26-8.73
			c-3.02-10.04-2.05-20.61-1.97-30.92c-11.13-0.89-22.26-1.78-33.39-2.54c-0.3,4.89-0.65,9.78-0.72,14.68
			c-0.21,15.09,3.28,30.18,9.88,43.74c5.43,10.91,13.71,21.08,25.13,26.01c10.47,4.64,23.3,3.71,32.75-2.87
			c7.36-4.99,11.87-13.14,14.46-21.46c3.82-11.92,4.23-24.55,6.77-36.73c1.75,2.36,2.32,5.3,3.03,8.09
			c1.9,8.18,2.04,16.62,2.32,24.98c11.2,0.36,22.41,0.5,33.63,0.72c0.48-20.78-2.93-42.44-14.6-60.06
			c-5.71-8.62-13.73-16.19-23.72-19.43C1143.34,337,1130.96,339.63,1122.92,347.36z M920.21,742.26
			c21.45,30.99,42.89,61.98,64.19,93.06c29.06-19.68,57.83-39.8,86.73-59.73c-6.28-9.24-12.63-18.42-19.03-27.57
			c-14.96,10.16-29.7,20.64-44.72,30.7c-1.66-2.34-3.26-4.7-4.81-7.09c13.54-9.41,27.17-18.7,40.7-28.13
			c-6.04-9-12.25-17.89-18.46-26.78c-13.65,9.3-27.09,18.91-40.85,28.03c-1.01-1.45-2.02-2.9-3-4.32
			c14.63-10.1,29.25-20.21,43.91-30.27c-6.18-9.16-12.5-18.22-18.81-27.29C977.44,702.67,948.69,722.28,920.21,742.26z
			 M241.35,715.88c-10.2,11.07-15.36,26.61-13.54,41.58c1.69,15.48,10.04,29.49,20.77,40.48c10.08,10.25,22.02,18.63,34.84,25.1
			c8.73,4.48,18.16,7.27,27.41,10.44c2.04-11.1,3.87-22.23,5.99-33.31c-7.24-2.61-14.86-4.22-21.72-7.82
			c-7.34-3.81-14.44-9.06-18.31-16.56c-3.25-6.2-2.55-13.83,0.73-19.86c3.49-6.51,8.82-12.71,16.17-14.77
			c6.8-1.84,13.98,0.32,19.94,3.7c10.23,5.79,17.62,15.18,24.72,24.31c0.86,1.97,2.7,0.16,3.94-0.36
			c8.75-5.08,17.74-9.75,26.43-14.93c-4.93-6.07-9.61-12.37-15.07-17.98c-9.94-10.31-21.26-19.39-33.84-26.28
			c-13.34-7.24-28.56-11.89-43.85-10.59C262.85,700.06,250.14,706.05,241.35,715.88z M796.13,785.08
			c11.14,36.05,22.85,71.92,34.03,107.96c33.58-10.3,67.01-21.1,100.5-31.7c-3.33-10.64-6.78-21.24-10.07-31.89
			c-17.32,5.19-34.47,10.93-51.75,16.26c-0.97-2.72-1.86-5.46-2.67-8.21c15.73-5.07,31.51-9.96,47.24-15.02
			c-3.19-10.34-6.56-20.62-9.73-30.96c-15.85,4.82-31.57,10.04-47.4,14.89c-0.53-1.69-1.05-3.37-1.57-5.04
			c16.91-5.66,34.1-10.49,50.91-16.41c-3.51-10.37-6.7-20.85-10.02-31.29C862.41,764.04,829.31,774.69,796.13,785.08z
			 M405.44,767.14c-10.36,1.96-20.34,6.49-28.14,13.67c-13.96,12.78-20.32,33.21-16.31,51.68c2.64,12.58,10.23,23.76,20.12,31.83
			c12.71,10.41,28.47,16.48,44.44,19.78c16.24,3.27,33.94,2.61,48.8-5.32c24.48-12.59,36.57-45.46,24.84-70.59
			c-7.13-15.27-21.42-25.85-36.49-32.52C444.85,767.92,424.83,763.57,405.44,767.14z M667.03,800.94
			c3.29,37.61,7.24,75.17,10.84,112.76c16.89-1.49,33.75-3.24,50.63-4.84c-0.98-12.87-2.5-25.7-3.6-38.56
			c16.41-1.76,32.87-3.2,49.29-4.88c-1.02-11.04-2.11-22.07-3.2-33.1c-16.45,1.56-32.88,3.23-49.33,4.78
			c-0.34-2.7-0.55-5.4-0.66-8.09c17.63-1.64,35.24-3.45,52.87-5.07c-0.77-11-2.16-21.95-3.03-32.93
			C736.22,794.1,701.64,797.74,667.03,800.94z M535.9,793.3c-3.28,37.62-6.53,75.24-9.74,112.87c16.94,1.41,33.86,2.95,50.8,4.35
			c1.18-12.71,2.09-25.46,3.36-38.16c0.64-0.07,1.9-0.21,2.54-0.28c15.65,1.32,31.29,2.93,46.97,3.96
			c0.75-11.02,1.91-22.01,2.72-33.02c-16.47-1.51-32.97-2.7-49.42-4.37c0.24-2.66,0.5-5.31,0.78-7.96
			c17.73,1.4,35.44,3.16,53.17,4.49c0.9-10.95,1.9-21.88,2.81-32.82C605.24,799.2,570.57,796.27,535.9,793.3z"/>
	</g>
	<path fill="#B3282D" d="M341.26,220.64c5.02-3.45,10.63-5.91,15.92-8.9c0.86,1.58,1.72,3.17,2.59,4.76
		C354.11,219.45,347.69,221.46,341.26,220.64z"/>
	<path fill="#B3282D" d="M1062.19,255.44c4.7,4.86,10.32,9.48,12.53,16.09c1.78,7.01-3.55,12.98-8.04,17.65
		c-5.8,5.56-12.34,11.66-20.69,12.52c-8.02-0.07-13.33-7.06-18.56-12.19C1038.97,278.11,1050.61,266.81,1062.19,255.44z"/>
	<path fill="#B3282D" d="M428.32,799.89c5.8-0.9,11.72,0.79,16.88,3.4c3.74,1.87,6.73,5.33,7.43,9.53c1.22,6.91-0.7,13.88-2.9,20.39
		c-2.36,6.53-5.79,13.38-12.12,16.87c-5.74,3.13-12.74,1.81-18.35-0.93c-4.16-1.91-7.8-5.48-8.61-10.12
		c-1.44-7.9,0.98-15.86,3.64-23.24C416.91,809.21,420.83,801.66,428.32,799.89z"/>
</g>
<g>
	<g>
		<path fill="#BE955B" d="M582.79,72.72c15.81-0.23,31.61-0.69,47.42-0.95c0.6,26.56,1.1,53.12,1.72,79.68
			c15.48-0.19,30.95-0.83,46.43-0.78c0.04,11.14,0.58,22.28,0.56,33.42c-31.27,0.55-62.54,1.39-93.81,1.91
			C584.39,148.24,583.34,110.48,582.79,72.72z M592.13,81.78c0.66,31.6,1.32,63.2,2,94.8c25.14-0.47,50.28-1.05,75.43-1.56
			c-0.1-5.04-0.19-10.07-0.31-15.1c-15.45,0.35-30.91,0.66-46.36,0.97c-0.6-26.56-1.15-53.13-1.74-79.7
			C611.47,81.36,601.8,81.59,592.13,81.78z"/>
	</g>
	<g>
		<path fill="#BE955B" d="M482.59,87.69c15.45-3.28,30.76-7.18,46.21-10.45c8.37,36.79,16.96,73.52,25.31,110.31
			c-15.37,3.63-30.78,7.11-46.18,10.66c-3.31-13.54-6.34-27.16-9.42-40.76c-8.52,1.4-16.88,3.68-25.29,5.61
			c3.18,13.62,6.26,27.28,9.43,40.91c-15.44,3.61-30.87,7.25-46.37,10.6c-8.41-36.76-16.9-73.5-25.33-110.26
			c15.44-3.6,30.87-7.28,46.37-10.59c2.75,12.41,5.68,24.78,8.51,37.17c8.43-1.69,16.75-3.83,25.15-5.66
			C488.34,112.68,485.05,100.27,482.59,87.69z M493.56,94.66c2.69,12.52,5.76,24.96,8.51,37.47c-14.39,3.29-28.76,6.71-43.18,9.87
			c-2.82-12.45-5.71-24.88-8.56-37.32c-9.43,2.15-18.84,4.37-28.28,6.46c6.95,30.84,14.15,61.63,21.21,92.45
			c9.45-2.14,18.9-4.29,28.33-6.53c-3.16-13.67-6.32-27.34-9.43-41.02c14.39-3.3,28.78-6.6,43.17-9.92
			c3.17,13.67,6.27,27.35,9.43,41.03c9.44-2.16,18.88-4.31,28.3-6.53c-7.05-30.8-14.15-61.59-21.22-92.39
			C512.41,90.36,503.01,92.62,493.56,94.66z"/>
	</g>
	<g>
		<path fill="#BE955B" d="M768.27,82.46c9.34,1.32,18.53,3.51,27.83,5.06c12.17,40.64,23.94,81.41,35.88,122.13
			c-16.69-3.05-33.35-6.29-50.02-9.46c-1.46-0.01-1.46-1.76-1.84-2.73c-1.85-7.5-3.76-14.99-5.67-22.47
			c-9.44-1.89-18.91-3.65-28.37-5.42c-5.21,6.9-10.27,13.92-15.4,20.88c-13.47-2.52-26.93-5.05-40.38-7.7
			C716.19,149.24,742.38,115.97,768.27,82.46z M772.26,92.47c-21.82,28.03-43.67,56.03-65.46,84.08c6.61,1.25,13.23,2.49,19.84,3.77
			c5.17-6.96,10.24-13.98,15.43-20.92c13.27,2.51,26.53,5.08,39.81,7.53c2.27,8.34,4.25,16.76,6.46,25.12
			c10.19,1.89,20.37,3.84,30.56,5.79c-9.97-34.09-19.93-68.17-29.96-102.24C783.37,94.56,777.82,93.49,772.26,92.47z"/>
	</g>
	<g>
		<path fill="#BE955B" d="M890.33,111.65c9.3,4.13,18.43,8.66,27.67,12.93c8.23,20.95,16.25,41.98,24.42,62.96
			c6.68-13.99,13.25-28.03,19.85-42.06c11.5,5.4,23.08,10.65,34.43,16.36c-16.27,34.03-32.02,68.31-48.37,102.3
			c-9.11-4.55-18.61-8.42-27.54-13.28c-8.29-20.76-16.24-41.68-24.3-62.53c-6.97,13.83-13.22,28.02-19.99,41.95
			c-11.46-5.44-22.97-10.77-34.39-16.26C858.21,179.91,874.32,145.8,890.33,111.65z M854.4,209.64c5.89,2.78,11.79,5.56,17.69,8.35
			c7.02-14.8,13.96-29.63,20.97-44.43c1.37-2.83,2.45-5.82,4.31-8.38c10.3,26.38,20.38,52.84,30.7,79.21
			c5.33,2.46,10.62,4.98,15.93,7.48c13.52-28.54,26.88-57.17,40.44-85.69c-5.84-2.94-11.81-5.62-17.72-8.41
			c-8.43,17.72-16.66,35.53-25.15,53.21c-10.3-26.44-20.34-52.99-30.81-79.35c-5.08-2.99-10.66-5.1-15.93-7.74
			C881.33,152.47,867.86,181.05,854.4,209.64z"/>
	</g>
	<path fill="#BE955B" d="M750.62,147.68c6.59-8.75,12.58-18,19.62-26.38c2.79,10.62,5.54,21.24,8.31,31.86
		C769.25,151.3,759.86,149.83,750.62,147.68z"/>
	<g>
		<path fill="#BE955B" d="M329.67,138.16c10.45-4.62,21.59-7.33,32.77-9.45c1.45,10.97,2.92,21.94,4.41,32.91
			c-13.07,2.7-26.99,5.36-37.35,14.44c-6.47,5.31-10.44,14.04-8.3,22.4c2.36,9.3,8.26,18.62,17.7,21.92c-0.24-0.99-0.45-2-0.94-2.9
			c-4.46-8.28-8.98-16.53-13.36-24.85c19.33-10.36,38.56-20.9,57.95-31.13c9.45,17.72,19.01,35.37,28.54,53.04
			c-16.05,17.85-35.69,33.32-58.94,40.38c-15.95,4.96-34.01,5.33-49.2-2.29c-16.31-7.96-27.35-25.05-28.84-43.02
			c-1.25-13.28,2.94-26.71,10.54-37.55C295.62,156.34,312.33,145.68,329.67,138.16z M301.43,166.83
			c-9.36,8.84-16.65,20.52-18.06,33.52c-2.06,17.65,7.68,36.22,23.74,44.04c12.39,6.17,27.03,6.01,40.13,2.36
			c20.38-5.77,38.24-18.45,52.55-33.82c-7.12-12.94-14.02-25.98-21.04-38.97c-13.9,7.44-27.77,14.96-41.65,22.43
			c2.14,4.04,4.35,8.03,6.45,12.09c5.86-2.96,11.58-6.2,17.39-9.27c3.68,6.92,7.55,13.74,11.05,20.76
			c-7.07,4.49-14.6,8.72-23.06,9.76c-8.8,1.5-18.21-1.28-24.57-7.59c-6.65-6.62-11.35-15.37-12.7-24.68
			c-1.39-9.3,2.24-18.86,8.75-25.51c9.55-9.84,22.91-14.94,36.13-17.52c-0.6-4.9-1.28-9.79-1.96-14.67
			C335.1,144.36,316.18,153.11,301.43,166.83z M341.26,220.64c6.43,0.82,12.85-1.19,18.51-4.14c-0.87-1.59-1.73-3.18-2.59-4.76
			C351.89,214.73,346.28,217.19,341.26,220.64z"/>
	</g>
	<g>
		<path fill="#BE955B" d="M971.1,278.17c26.93-26.47,53.92-52.88,80.92-79.27c9.55,9.65,19,19.4,28.52,29.08
			c8.87,9.15,18.17,18.06,25.21,28.77c5.63,8.62,9.79,18.43,10.78,28.75c1.11,12.13-3.4,24.25-10.84,33.72
			c-9.82,12.52-24.66,21.44-40.66,22.77c-14.41,1.28-28.8-3.81-40.49-12.03c-9.47-6.74-17.5-15.21-25.64-23.44
			C989.64,297.06,980.37,287.62,971.1,278.17z M984.15,278.27c9.59,9.78,19.12,19.61,28.77,29.33c8.66,8.53,17.85,17.1,29.36,21.6
			c10.05,4.21,21.62,5.07,32,1.48c13.72-4.69,25.62-15.34,30.85-28.98c3.15-8.13,2.99-17.3,0.03-25.46
			c-4.52-13.68-14.43-24.57-24.28-34.72c-9.65-9.88-19.33-19.74-29.01-29.6C1029.29,234.02,1006.71,256.14,984.15,278.27z"/>
	</g>
	<g>
		<path fill="#BE955B" d="M185.26,241.04c11.52-10.88,23.25-21.54,34.9-32.29c25.66,27.68,51.15,55.51,76.83,83.16
			c-11.51,10.9-23.27,21.54-34.91,32.31C236.44,296.52,210.91,268.72,185.26,241.04z M198.31,241.5
			c21.43,23.24,42.85,46.47,64.3,69.69c7.12-6.56,14.23-13.13,21.34-19.69c-21.4-23.26-42.87-46.45-64.28-69.69
			C212.53,228.35,205.42,234.92,198.31,241.5z"/>
	</g>
	<g>
		<path fill="#BE955B" d="M624.29,220.89c78.12-1.95,157.17,11.17,229.04,42.39c31.47,13.74,61.52,31.02,88.43,52.42
			c23.9,18.99,45.35,41.3,62.04,66.93c14.46,22.16,25.18,46.9,30.39,72.9c5.95,29.32,4.72,60.04-3.47,88.82
			c-8.21,29.19-23.26,56.18-42.32,79.67c-21.67,26.74-48.34,49.15-77.3,67.63c-43.54,27.68-92.24,46.7-142.37,58.5
			c-68.2,15.94-139.35,18.74-208.7,9.25c-43.51-6.06-86.4-17.17-127.01-34.02c-31.21-12.98-61.1-29.35-88.17-49.64
			c-24.39-18.3-46.52-39.84-64.21-64.75c-17.14-24.1-29.94-51.51-35.82-80.56c-6.02-29.33-4.86-60.07,3.27-88.87
			c8.15-29.24,23.19-56.27,42.22-79.8c33.87-41.73,79.27-72.84,127.83-95.13C482.68,237.19,553.54,222.77,624.29,220.89z
			 M600.51,235.28c-51.1,3.51-101.87,13.8-149.82,31.97c-39.43,14.98-77.08,35.32-109.74,62.15c-25.7,21.17-48.29,46.57-64.07,76.02
			c-13.86,25.77-22.07,54.73-22.53,84.05c-0.78,34.37,9.22,68.52,26.68,97.99c16.27,27.68,38.49,51.53,63.5,71.53
			c29.11,23.24,62.02,41.47,96.48,55.45c71.72,28.96,150.02,40.09,227.08,36.38c64.11-3.21,128.03-17.03,186.62-43.57
			c38.82-17.67,75.4-41.08,105.56-71.43c24.15-24.35,44.04-53.49,54.97-86.17c9.99-29.52,12.11-61.68,5.81-92.21
			c-5.33-26.26-16.67-51.1-31.87-73.09c-17.24-24.99-39.22-46.47-63.5-64.59c-28.25-21.06-59.64-37.7-92.4-50.58
			C759.59,240.35,679.27,230.08,600.51,235.28z"/>
	</g>
	<g>
		<path fill="#BE955B" d="M1062.29,242.37c6.36,6.57,13.42,12.67,18.43,20.4c3.92,5.87,4.77,13.66,1.73,20.1
			c-4.03,8.76-11.36,15.49-18.93,21.23c-7.17,5.31-16.81,8.99-25.55,5.42c-9.8-4.06-16.17-13.02-23.62-20.14
			C1030.32,273.7,1046.34,258.07,1062.29,242.37z M1062.19,255.44c-11.58,11.37-23.22,22.67-34.76,34.07
			c5.23,5.13,10.54,12.12,18.56,12.19c8.35-0.86,14.89-6.96,20.69-12.52c4.49-4.67,9.82-10.64,8.04-17.65
			C1072.51,264.92,1066.89,260.3,1062.19,255.44z"/>
	</g>
	<g>
		<path fill="#BE955B" d="M590.24,285.67c24.33-6.98,49-12.78,73.84-17.59c1.8-0.48,3.44,0.63,5.07,1.22
			c28.34,12.32,55.4,27.39,81.99,43.07c29.23,17.38,57.72,35.98,85.67,55.34c4.82,3.26,9.36,7.03,14.81,9.21
			c18.77,8.42,40.52,12.68,60.64,6.73c8.76-2.44,16.27-7.69,23.93-12.38c8.67,9.8,17.16,19.83,24.06,30.98
			c8.55,13.66,15.34,28.57,19.01,44.3c-0.36,12-5.86,23.54-13.98,32.26c-9.72,10.5-22.73,17.42-36.27,21.66
			c-20.01,6.29-41.1,8.19-61.98,8.74c-38.54,0.72-76.97-3.67-114.99-9.62c-46.17-7.47-91.86-17.72-136.94-30.15
			c-41.85-10.97-84.22-20.23-127.19-25.54c-27.16-3.28-54.61-5.04-81.95-3.25c-30.73,2.15-62.79,8.76-87.48,28.33
			c-9.81,7.52-19.44,15.29-29.23,22.85c1.77-12.07,3.43-24.15,5.33-36.2c4.98-29.74,20.25-56.99,40.34-79.18
			c25.99-28.82,59.31-50,94.21-66.43c4.89,3.9,9.63,8.09,15.2,11.02c12.2,6.62,26.79,8.77,40.36,5.92
			C518.03,308.98,553.93,296.21,590.24,285.67z M597.76,297.33c-35.24,10.08-70.22,22.01-102.68,39.22
			c-6.12,4.39-13.89,4.55-21.12,4.88c-16.8,0.38-33.51-5.42-46.72-15.75c-35.3,17.47-68.82,40.58-92.76,72.3
			c-13.84,18.38-23.95,39.89-27.29,62.77c7.17-5.32,14.36-10.69,22.36-14.71c17.24-8.9,36.26-13.81,55.38-16.56
			c24.85-3.5,50.08-3.4,75.08-1.65c46.16,3.39,91.73,12.27,136.65,23.2c19.33,4.62,38.4,10.29,57.72,14.94
			c25.37,6.31,50.93,11.8,76.63,16.52c42.25,7.59,85.01,13.38,128.01,13.5c20.59-0.14,41.4-1.41,61.36-6.82
			c13.56-3.71,27.01-9.95,36.37-20.76c4.94-5.85,8.71-13.19,9-20.93c-5.52-21.96-17.54-41.82-32.15-58.93
			c-14.18,8.65-31.11,12.26-47.6,10.91c-16.62-1.33-33.04-6.23-47.55-14.44c-24.05-16.83-48.45-33.16-73.39-48.63
			c-31.36-19.36-63.36-37.83-96.95-53.06c-1.9-0.76-3.85-2.05-5.95-1.35C640.51,286.31,619.01,291.36,597.76,297.33z"/>
	</g>
	<g>
		<path fill="#BE955B" d="M123.24,322.75c4.87-10.26,9.37-20.69,14.47-30.83c34.16,15.95,68.41,31.69,102.58,47.62
			c-6.51,14.37-13.36,28.58-19.81,42.98c-12.95-5.48-25.51-11.85-38.37-17.52c-3.59,7.79-7.23,15.56-10.82,23.35
			c12.65,6.11,25.62,11.58,38.14,17.95c-6.78,14.24-13.23,28.64-20.01,42.88c-34.22-15.9-68.49-31.69-102.67-47.66
			c6.49-14.36,13.36-28.55,19.75-42.96c11.85,4.92,23.26,10.88,35.07,15.93c3.35-7.92,7.61-15.47,10.53-23.55
			c-11.48-5.13-22.81-10.62-34.27-15.78C119.14,330.82,121.45,326.89,123.24,322.75z M142.05,304.16
			c-4.1,8.78-8.18,17.56-12.23,26.36c11.6,5.36,23.19,10.75,34.8,16.11c-6.2,13.41-12.42,26.82-18.66,40.21
			c-11.59-5.37-23.17-10.78-34.78-16.11c-4.06,8.79-8.2,17.55-12.18,26.38c28.68,13.22,57.31,26.56,85.98,39.83
			c4.09-8.78,8.17-17.57,12.22-26.36c-12.71-5.84-25.34-11.87-38.11-17.57c5.96-13.54,12.4-26.88,18.58-40.33
			c12.73,5.89,25.45,11.81,38.17,17.71c4.04-8.81,8.23-17.56,12.17-26.42C199.32,330.77,170.72,317.39,142.05,304.16z"/>
	</g>
	<path fill="#BE955B" d="M617.93,315.99c1.87-0.28,3.86-1.06,5.68-0.12c13.66,5.81,27.35,11.57,40.99,17.44
		c-10.04,10.23-20.36,20.19-30.34,30.47c21.57-2.28,43.12-4.86,64.68-7.2c1.67-0.36,3.16,0.61,4.59,1.33
		c19.36,10.52,38.84,20.88,57.51,32.6c1.56,0.93,3.03,2.04,4.26,3.4c-38.45,11.64-79.69,13.9-119.26,7.12
		c-10.22-1.87-20.4-4.17-30.26-7.48c-34.35-14.75-68.5-30.11-103.86-42.34C545.15,334.04,581.33,323.18,617.93,315.99z"/>
	<g>
		<path fill="#BE955B" d="M1122.92,347.36c8.04-7.73,20.42-10.36,30.98-6.87c9.99,3.24,18.01,10.81,23.72,19.43
			c11.67,17.62,15.08,39.28,14.6,60.06c-11.22-0.22-22.43-0.36-33.63-0.72c-0.28-8.36-0.42-16.8-2.32-24.98
			c-0.71-2.79-1.28-5.73-3.03-8.09c-2.54,12.18-2.95,24.81-6.77,36.73c-2.59,8.32-7.1,16.47-14.46,21.46
			c-9.45,6.58-22.28,7.51-32.75,2.87c-11.42-4.93-19.7-15.1-25.13-26.01c-6.6-13.56-10.09-28.65-9.88-43.74
			c0.07-4.9,0.42-9.79,0.72-14.68c11.13,0.76,22.26,1.65,33.39,2.54c-0.08,10.31-1.05,20.88,1.97,30.92
			c1.01,3.05,1.7,6.53,4.26,8.73c2.91-11.13,3.04-22.75,5.92-33.89C1112.69,362.41,1116.29,353.65,1122.92,347.36z M1131.04,352.57
			c-5.15,3.92-8.23,9.9-10.2,15.94c-4.17,12.67-3.8,26.26-7.44,39.04c-0.96,3.67-3.29,7.68-7.42,8.18
			c-5.15,0.47-8.88-4.08-11.11-8.15c-5.3-10.35-6.24-22.27-5.91-33.71c-5.12-0.39-10.22-0.81-15.33-1.13
			c-0.92,14.49,1.81,29.16,7.79,42.39c4.18,9.07,10.4,17.72,19.37,22.54c6.82,3.74,15.39,4.41,22.51,1.08
			c6.54-2.89,10.93-9.1,13.35-15.65c4.88-13.14,4.89-27.38,7.99-40.94c0.83-3.41,2.3-7.7,6.22-8.49c4.86-0.79,8.41,3.67,10.5,7.47
			c4.57,8.96,5.6,19.22,6.2,29.12c5.11,0.13,10.22,0.23,15.34,0.33c-0.39-14.59-3.62-29.32-10.81-42.11
			c-4.5-7.86-10.82-15.24-19.44-18.65C1145.61,346.96,1137.1,347.93,1131.04,352.57z"/>
	</g>
	<path fill="#BE955B" d="M357.32,415.08c15.07-27.55,38.98-49.56,65.83-65.43c12.34,6.54,24.99,12.47,37.79,18.03
		c1.77,0.33,0.75,2.02-0.03,2.78c-7.73,9.59-15.67,19.03-23.22,28.77c13.34-6.95,26.91-14.12,41.79-17.06
		c6.92-1.52,13.64,1.41,19.94,3.9c15.85,6.99,30.21,17.13,42.86,28.9c-41.44-7.3-83.77-8-125.69-5.65
		C396.77,410.46,376.98,412.32,357.32,415.08z"/>
	<g>
		<path fill="#BE955B" d="M402.99,472.68c40.79-3.43,81.78,1.11,122.01,7.88c24.33,4.19,48.47,9.44,72.44,15.38
			c19.67,4.76,39.04,10.67,58.75,15.33c44.07,10.73,88.66,19.52,133.72,24.88c34.82,3.96,70.06,6.26,105.03,2.9
			c18.99-1.98,38.19-5.58,55.43-14.14c8.9-4.32,16.37-10.89,24.27-16.74c5.01-3.83,10.02-7.66,15.05-11.47
			c-2.21,12.28-4.32,24.58-6.64,36.84c-5.81,28.7-21.11,54.79-40.75,76.23c-23.06,25.17-51.67,44.71-82.04,60
			c-57.44,28.64-121.27,42.93-185.1,46.91c-45.49,2.74-91.32,0.1-136.13-8.26c-36.22-6.79-71.84-17.29-105.44-32.5
			c-29.49-13.42-57.53-30.58-81.39-52.62c-22.42-20.78-41.44-46.32-50.51-75.79c-0.11-12.46,4.34-24.74,11.41-34.92
			c8.12-11.67,20-20.25,32.81-26.14C363.82,478.2,383.45,474.47,402.99,472.68z M385.9,488.26c-16.88,2.98-33.87,8.02-47.97,18.09
			c-10.82,7.63-19.29,19.01-22.01,32.1c-0.56,3.06-1.47,6.34-0.23,9.36c8.02,22.47,21.99,42.45,38.74,59.29
			c20.87,20.98,45.84,37.52,72.21,50.76c31.76,15.89,65.73,27.07,100.38,34.63c45.25,9.78,91.77,13.41,138,11.39
			c63.18-2.9,126.48-16.16,183.73-43.54c30.27-14.62,58.93-33.42,82.07-58c19.36-20.64,34.78-46.02,39.64-74.2
			c-19.26,14.15-43.09,20.13-66.42,23.24c-39.24,4.88-78.97,2.25-118.11-2.33c-44.7-5.43-88.95-14.19-132.68-24.83
			c-20.84-4.96-41.34-11.19-62.18-16.16c-43.07-10.47-86.76-19.03-131.02-22.22C435.35,484.18,410.37,484.09,385.9,488.26z"/>
	</g>
	<path fill="#BE955B" d="M371.07,515.51c18.23-7.73,38.37-9.41,57.98-9.28c38.58,0.56,76.48,9,113.71,18.48
		c25.36,6.2,50.77,12.21,76.28,17.74c12.4,2.51,24.76,5.48,37.39,6.59c-45.76,5.54-91.49,11.58-137.3,16.7
		c3.86-6.25,7.96-12.34,11.78-18.61c-29.59,8.19-59.11,16.61-88.7,24.77c4.64-7.1,9.6-13.99,14.29-21.06
		c-15.57,2.37-31.33,7.33-43.69,17.41c-7.09,5.79-12.33,14.09-13.36,23.29c-1.27,10.34,2.11,20.53,6.52,29.74
		c-14.13-11.69-27.68-24.15-39.95-37.8c-8.07-9.22-15.99-18.93-20.73-30.34c-1.51-4.26-3.42-9.18-1.27-13.55
		C349.05,528.12,359.87,520.36,371.07,515.51z"/>
	<g>
		<path fill="#BE955B" d="M920.21,742.26c28.48-19.98,57.23-39.59,85.85-59.39c6.31,9.07,12.63,18.13,18.81,27.29
			c-14.66,10.06-29.28,20.17-43.91,30.27c0.98,1.42,1.99,2.87,3,4.32c13.76-9.12,27.2-18.73,40.85-28.03
			c6.21,8.89,12.42,17.78,18.46,26.78c-13.53,9.43-27.16,18.72-40.7,28.13c1.55,2.39,3.15,4.75,4.81,7.09
			c15.02-10.06,29.76-20.54,44.72-30.7c6.4,9.15,12.75,18.33,19.03,27.57c-28.9,19.93-57.67,40.05-86.73,59.73
			C963.1,804.24,941.66,773.25,920.21,742.26z M933.01,744.51c17.94,26.02,35.92,52.01,53.87,78.02
			c23.85-16.38,47.63-32.86,71.45-49.28c-2.83-4.17-5.71-8.29-8.56-12.44c-14.92,10.24-29.75,20.61-44.7,30.8
			c-5.13-7.41-10.24-14.84-15.37-22.25c13.52-9.49,27.14-18.83,40.75-28.19c-2.6-3.94-5.26-7.84-8.05-11.65
			c-13.48,9.48-27.14,18.72-40.64,28.17c-4.71-6.41-9.05-13.09-13.62-19.59c14.61-10.07,29.14-20.27,43.85-30.18
			c-2.52-4.23-5.53-8.14-8.27-12.22C980.15,711.96,956.58,728.24,933.01,744.51z"/>
	</g>
	<g>
		<path fill="#BE955B" d="M241.35,715.88c8.79-9.83,21.5-15.82,34.61-16.85c15.29-1.3,30.51,3.35,43.85,10.59
			c12.58,6.89,23.9,15.97,33.84,26.28c5.46,5.61,10.14,11.91,15.07,17.98c-8.69,5.18-17.68,9.85-26.43,14.93
			c-1.24,0.52-3.08,2.33-3.94,0.36c-7.1-9.13-14.49-18.52-24.72-24.31c-5.96-3.38-13.14-5.54-19.94-3.7
			c-7.35,2.06-12.68,8.26-16.17,14.77c-3.28,6.03-3.98,13.66-0.73,19.86c3.87,7.5,10.97,12.75,18.31,16.56
			c6.86,3.6,14.48,5.21,21.72,7.82c-2.12,11.08-3.95,22.21-5.99,33.31c-9.25-3.17-18.68-5.96-27.41-10.44
			c-12.82-6.47-24.76-14.85-34.84-25.1c-10.73-10.99-19.08-25-20.77-40.48C225.99,742.49,231.15,726.95,241.35,715.88z
			 M245.65,725.13c-7.3,9.36-10.31,21.82-8.23,33.5c2.42,14.41,11.19,26.95,21.75,36.7c12.76,11.62,27.96,20.6,44.37,25.98
			c1.02-4.94,1.82-9.91,2.72-14.87c-14.04-4.02-28.18-11.21-36.14-23.95c-5.18-8.02-6.19-18.49-2.44-27.29
			c3.9-9.25,10.74-17.79,20.14-21.81c8.08-3.44,17.44-2.54,25.35,0.95c11.57,5.02,20.83,14.16,28.34,24.09
			c4.55-2.19,8.89-4.8,13.27-7.3c-10.26-12.58-22.58-23.56-36.57-31.84c-12.98-7.55-28.09-12.67-43.26-10.87
			C263.44,709.68,252.57,715.83,245.65,725.13z"/>
	</g>
	<g>
		<path fill="#BE955B" d="M796.13,785.08c33.18-10.39,66.28-21.04,99.47-31.41c3.32,10.44,6.51,20.92,10.02,31.29
			c-16.81,5.92-34,10.75-50.91,16.41c0.52,1.67,1.04,3.35,1.57,5.04c15.83-4.85,31.55-10.07,47.4-14.89
			c3.17,10.34,6.54,20.62,9.73,30.96c-15.73,5.06-31.51,9.95-47.24,15.02c0.81,2.75,1.7,5.49,2.67,8.21
			c17.28-5.33,34.43-11.07,51.75-16.26c3.29,10.65,6.74,21.25,10.07,31.89c-33.49,10.6-66.92,21.4-100.5,31.7
			C818.98,857,807.27,821.13,796.13,785.08z M807.63,791.22c9.58,30.1,19.1,60.22,28.65,90.33c27.6-8.68,55.17-17.46,82.76-26.2
			c-1.54-4.81-2.9-9.68-4.67-14.42c-17.17,5.6-34.42,10.95-51.63,16.4c-2.72-8.63-5.48-17.24-8.18-25.87
			c15.74-4.93,31.42-10.03,47.18-14.87c-1.21-4.58-2.7-9.08-4.23-13.55c-15.67,5.12-31.44,9.89-47.1,15.04
			c-2.62-7.54-4.89-15.2-7.3-22.8c16.95-5.34,33.9-10.71,50.86-16.07c-1.42-4.66-2.96-9.27-4.35-13.93
			C862.24,773.77,834.94,782.52,807.63,791.22z"/>
	</g>
	<g>
		<path fill="#BE955B" d="M405.44,767.14c19.39-3.57,39.41,0.78,57.26,8.53c15.07,6.67,29.36,17.25,36.49,32.52
			c11.73,25.13-0.36,58-24.84,70.59c-14.86,7.93-32.56,8.59-48.8,5.32c-15.97-3.3-31.73-9.37-44.44-19.78
			c-9.89-8.07-17.48-19.25-20.12-31.83c-4.01-18.47,2.35-38.9,16.31-51.68C385.1,773.63,395.08,769.1,405.44,767.14z M407.49,776.13
			c-13.89,2.3-26.99,10.78-33.21,23.64c-6.6,12.81-7.19,28.82-0.31,41.65c7.39,14.22,21.68,23.37,36.35,28.77
			c16.06,5.87,34,8.95,50.73,4.13c11.93-3.34,22.34-11.76,27.83-22.89c6.01-11.89,7.95-26.57,2.15-38.91
			c-6.03-13.09-18.34-22-31.09-27.93C443.66,777.26,425.32,773.04,407.49,776.13z"/>
	</g>
	<g>
		<path fill="#BE955B" d="M427.16,790.75c7.14-1.15,14.43,0.67,20.92,3.63c5.93,2.71,11.04,7.66,12.95,14.01
			c2.47,8.04,0.86,16.65-1.48,24.52c-2.73,8.86-6.99,17.84-14.64,23.47c-6.14,4.63-14.41,5.73-21.77,3.89
			c-7.76-1.94-15.67-6.06-19.43-13.46c-4.01-7.8-3.03-17.03-0.95-25.23c2.39-8.72,5.64-17.64,12.05-24.26
			C418.12,793.93,422.47,791.54,427.16,790.75z M428.32,799.89c-7.49,1.77-11.41,9.32-14.03,15.9c-2.66,7.38-5.08,15.34-3.64,23.24
			c0.81,4.64,4.45,8.21,8.61,10.12c5.61,2.74,12.61,4.06,18.35,0.93c6.33-3.49,9.76-10.34,12.12-16.87
			c2.2-6.51,4.12-13.48,2.9-20.39c-0.7-4.2-3.69-7.66-7.43-9.53C440.04,800.68,434.12,798.99,428.32,799.89z"/>
	</g>
	<g>
		<path fill="#BE955B" d="M667.03,800.94c34.61-3.2,69.19-6.84,103.81-9.93c0.87,10.98,2.26,21.93,3.03,32.93
			c-17.63,1.62-35.24,3.43-52.87,5.07c0.11,2.69,0.32,5.39,0.66,8.09c16.45-1.55,32.88-3.22,49.33-4.78
			c1.09,11.03,2.18,22.06,3.2,33.1c-16.42,1.68-32.88,3.12-49.29,4.88c1.1,12.86,2.62,25.69,3.6,38.56
			c-16.88,1.6-33.74,3.35-50.63,4.84C674.27,876.11,670.32,838.55,667.03,800.94z M676.97,809.32c3.05,31.45,6.12,62.89,9.18,94.34
			c10.79-1,21.58-2.06,32.36-3.13c-1.25-12.82-2.42-25.65-3.79-38.45c16.42-1.89,32.91-3.25,49.36-4.95
			c-0.34-4.93-0.9-9.83-1.37-14.74c-16.45,1.61-32.9,3.2-49.35,4.8c-0.91-8.81-1.74-17.64-2.59-26.45
			c17.71-1.71,35.41-3.42,53.11-5.19c-0.46-4.85-0.94-9.7-1.42-14.54C733.96,803.76,705.46,806.53,676.97,809.32z"/>
	</g>
	<g>
		<path fill="#BE955B" d="M535.9,793.3c34.67,2.97,69.34,5.9,103.99,9.06c-0.91,10.94-1.91,21.87-2.81,32.82
			c-17.73-1.33-35.44-3.09-53.17-4.49c-0.28,2.65-0.54,5.3-0.78,7.96c16.45,1.67,32.95,2.86,49.42,4.37
			c-0.81,11.01-1.97,22-2.72,33.02c-15.68-1.03-31.32-2.64-46.97-3.96c-0.64,0.07-1.9,0.21-2.54,0.28
			c-1.27,12.7-2.18,25.45-3.36,38.16c-16.94-1.4-33.86-2.94-50.8-4.35C529.37,868.54,532.62,830.92,535.9,793.3z M544.3,803.32
			c-2.71,31.48-5.47,62.96-8.15,94.44c10.81,0.88,21.6,1.9,32.42,2.75c1.09-12.87,2.22-25.73,3.33-38.58
			c16.48,1.35,32.95,2.82,49.43,4.23c0.41-4.91,0.86-9.81,1.25-14.71c-16.46-1.48-32.93-2.88-49.4-4.28
			c0.73-8.82,1.51-17.64,2.26-26.45c17.73,1.47,35.45,3.02,53.17,4.57c0.46-4.87,0.88-9.74,1.31-14.6
			C601.38,808.2,572.85,805.71,544.3,803.32z"/>
	</g>
</g>
</svg>
